#VRML V2.0 utf8
# META "generator" "CAD Exchanger 3.4.1 (cadexchanger.com)"
DEF __1 Transform {
  children [
    DEF ASSEMBLY Group {
      children [
        DEF Body Group {
          children [
            DEF __4 Shape {
              appearance DEF __5 Appearance {
                material DEF __6 Material {
                  ambientIntensity 0.66666662693
                  diffuseColor 0.300000011921 0.300000011921 0.300000011921
                  shininess 0
                }
              }
              geometry DEF __7 IndexedFaceSet {
                solid FALSE
                coord Coordinate {
                  point [
                    -0.00271 0.0025 0,
                    -0.00271 0.0025 0.0035,
                    0.00759 0.0025 0.0035,
                    0.00759 0.0025 0,
                    0.00759 -0.0025 0,
                    0.00759 -0.0025 0.0035,
                    -0.00271 -0.0025 0.0035,
                    -0.00271 -0.0025 0,
                    0.00802412044417 -0.00246201938253 0,
                    0.00844505035831 -0.00234923155196 0,
                    0.00884 -0.00216506350946 0,
                    0.00919696902422 -0.0019151111078 0,
                    0.0095051111078 -0.00160696902422 0,
                    0.00975506350946 -0.00125 0,
                    0.00993923155196 -0.000855050358314 0,
                    0.0100520193825 -0.000434120444167 0,
                    0.01009 -5.05321549807e-18 0,
                    0.0100520193825 0.000434120444167 0,
                    0.00993923155196 0.000855050358314 0,
                    0.00975506350946 0.00125 0,
                    0.0095051111078 0.00160696902422 0,
                    0.00919696902422 0.0019151111078 0,
                    0.00884 0.00216506350946 0,
                    0.00844505035831 0.00234923155196 0,
                    0.00802412044417 0.00246201938253 0,
                    0.00802412044417 -0.00246201938253 0.0035,
                    0.00844505035831 -0.00234923155196 0.0035,
                    0.00884 -0.00216506350946 0.0035,
                    0.00919696902422 -0.0019151111078 0.0035,
                    0.0095051111078 -0.00160696902422 0.0035,
                    0.00975506350946 -0.00125 0.0035,
                    0.00993923155196 -0.000855050358314 0.0035,
                    0.0100520193825 -0.000434120444167 0.0035,
                    0.01009 -5.05321549807e-18 0.0035,
                    0.0100520193825 0.000434120444167 0.0035,
                    0.00993923155196 0.000855050358314 0.0035,
                    0.00975506350946 0.00125 0.0035,
                    0.0095051111078 0.00160696902422 0.0035,
                    0.00919696902422 0.0019151111078 0.0035,
                    0.00884 0.00216506350946 0.0035,
                    0.00844505035831 0.00234923155196 0.0035,
                    0.00802412044417 0.00246201938253 0.0035,
                    -0.00314412044417 0.00246201938253 0,
                    -0.00356505035831 0.00234923155196 0,
                    -0.00396 0.00216506350946 0,
                    -0.00431696902422 0.0019151111078 0,
                    -0.0046251111078 0.00160696902422 0,
                    -0.00487506350946 0.00125 0,
                    -0.00505923155196 0.000855050358314 0,
                    -0.00517201938253 0.000434120444167 0,
                    -0.00521 3.63683077366e-18 0,
                    -0.00517201938253 -0.000434120444167 0,
                    -0.00505923155196 -0.000855050358314 0,
                    -0.00487506350946 -0.00125 0,
                    -0.0046251111078 -0.00160696902422 0,
                    -0.00431696902422 -0.0019151111078 0,
                    -0.00396 -0.00216506350946 0,
                    -0.00356505035831 -0.00234923155196 0,
                    -0.00314412044417 -0.00246201938253 0,
                    -0.00314412044417 0.00246201938253 0.0035,
                    -0.00356505035831 0.00234923155196 0.0035,
                    -0.00396 0.00216506350946 0.0035,
                    -0.00431696902422 0.0019151111078 0.0035,
                    -0.0046251111078 0.00160696902422 0.0035,
                    -0.00487506350946 0.00125 0.0035,
                    -0.00505923155196 0.000855050358314 0.0035,
                    -0.00517201938253 0.000434120444167 0.0035,
                    -0.00521 3.63683077366e-18 0.0035,
                    -0.00517201938253 -0.000434120444167 0.0035,
                    -0.00505923155196 -0.000855050358314 0.0035,
                    -0.00487506350946 -0.00125 0.0035,
                    -0.0046251111078 -0.00160696902422 0.0035,
                    -0.00431696902422 -0.0019151111078 0.0035,
                    -0.00396 -0.00216506350946 0.0035,
                    -0.00356505035831 -0.00234923155196 0.0035,
                    -0.00314412044417 -0.00246201938253 0.0035,
                    0.00244 -7.48464960422e-20 0,
                    0.00244 -7.48464960422e-20 0.0035

                  ]
                }
                normal Normal {
                  vector [
                    -0 1 0,
                    -0 1 0,
                    -0 1 0,
                    -0 1 0,
                    3.061617e-16 -1 0,
                    -1.8369701e-16 1 0,
                    0.17364818 -0.98480773 0,
                    0.34202015 -0.93969262 0,
                    0.5 -0.86602539 0,
                    0.64278764 -0.76604444 0,
                    0.76604444 -0.64278764 0,
                    0.86602539 -0.5 0,
                    0.93969262 -0.34202015 0,
                    0.98480773 -0.17364818 0,
                    1 -1.5314275e-15 0,
                    0.98480773 0.17364818 -0,
                    0.93969262 0.34202015 -0,
                    0.86602539 0.5 -0,
                    0.76604444 0.64278764 -0,
                    0.64278764 0.76604444 -0,
                    0.5 0.86602539 -0,
                    0.34202015 0.93969262 -0,
                    0.17364818 0.98480773 -0,
                    4.8298534e-13 1 -0,
                    3.061617e-16 -1 0,
                    0.17364818 -0.98480773 0,
                    0.34202015 -0.93969262 0,
                    0.5 -0.86602539 0,
                    0.64278764 -0.76604444 0,
                    0.76604444 -0.64278764 0,
                    0.86602539 -0.5 0,
                    0.93969262 -0.34202015 0,
                    0.98480773 -0.17364818 0,
                    1 -1.5314275e-15 0,
                    0.98480773 0.17364818 -0,
                    0.93969262 0.34202015 -0,
                    0.86602539 0.5 -0,
                    0.76604444 0.64278764 -0,
                    0.64278764 0.76604444 -0,
                    0.5 0.86602539 -0,
                    0.34202015 0.93969262 -0,
                    0.17364818 0.98480773 -0,
                    0 -1 0,
                    0 -1 0,
                    0 -1 0,
                    0 -1 0,
                    -1.8369701e-16 1 0,
                    6.1232343e-17 -1 0,
                    -0.17364818 0.98480773 0,
                    -0.34202015 0.93969262 0,
                    -0.5 0.86602539 0,
                    -0.64278764 0.76604444 0,
                    -0.76604444 0.64278764 0,
                    -0.86602539 0.5 0,
                    -0.93969262 0.34202015 0,
                    -0.98480773 0.17364818 0,
                    -1 1.209803e-15 0,
                    -0.98480773 -0.17364818 0,
                    -0.93969262 -0.34202015 0,
                    -0.86602539 -0.5 0,
                    -0.76604444 -0.64278764 0,
                    -0.64278764 -0.76604444 0,
                    -0.5 -0.86602539 0,
                    -0.34202015 -0.93969262 0,
                    -0.17364818 -0.98480773 0,
                    3.100355e-13 -1 0,
                    -1.8369701e-16 1 0,
                    -0.17364818 0.98480773 0,
                    -0.34202015 0.93969262 0,
                    -0.5 0.86602539 0,
                    -0.64278764 0.76604444 0,
                    -0.76604444 0.64278764 0,
                    -0.86602539 0.5 0,
                    -0.93969262 0.34202015 0,
                    -0.98480773 0.17364818 0,
                    -1 1.209803e-15 0,
                    -0.98480773 -0.17364818 0,
                    -0.93969262 -0.34202015 0,
                    -0.86602539 -0.5 0,
                    -0.76604444 -0.64278764 0,
                    -0.64278764 -0.76604444 0,
                    -0.5 -0.86602539 0,
                    -0.34202015 -0.93969262 0,
                    -0.17364818 -0.98480773 0,
                    -0 0 -1,
                    -0 0 -1,
                    -0 0 -1,
                    -0 0 -1,
                    -0 0 -1,
                    -0 0 -1,
                    -0 0 -1,
                    -0 0 -1,
                    -0 0 -1,
                    -0 0 -1,
                    -0 0 -1,
                    -0 0 -1,
                    -0 0 -1,
                    -0 0 -1,
                    -0 0 -1,
                    -0 0 -1,
                    -0 0 -1,
                    -0 0 -1,
                    -0 0 -1,
                    -0 0 -1,
                    -0 0 -1,
                    -0 0 -1,
                    -0 0 -1,
                    -0 0 -1,
                    -0 0 -1,
                    -0 0 -1,
                    -0 0 -1,
                    -0 0 -1,
                    -0 0 -1,
                    -0 0 -1,
                    -0 0 -1,
                    -0 0 -1,
                    -0 0 -1,
                    -0 0 -1,
                    -0 0 -1,
                    -0 0 -1,
                    -0 0 -1,
                    -0 0 -1,
                    -0 0 -1,
                    0 -0 1,
                    0 -0 1,
                    0 -0 1,
                    0 -0 1,
                    0 -0 1,
                    0 -0 1,
                    0 -0 1,
                    0 -0 1,
                    0 -0 1,
                    0 -0 1,
                    0 -0 1,
                    0 -0 1,
                    0 -0 1,
                    0 -0 1,
                    0 -0 1,
                    0 -0 1,
                    0 -0 1,
                    0 -0 1,
                    0 -0 1,
                    0 -0 1,
                    0 -0 1,
                    0 -0 1,
                    0 -0 1,
                    0 -0 1,
                    0 -0 1,
                    0 -0 1,
                    0 -0 1,
                    0 -0 1,
                    0 -0 1,
                    0 -0 1,
                    0 -0 1,
                    0 -0 1,
                    0 -0 1,
                    0 -0 1,
                    0 -0 1,
                    0 -0 1,
                    0 -0 1,
                    0 -0 1,
                    0 -0 1

                  ]
                }
                coordIndex [
                  3 0 1 -1 
                  3 1 2 -1 
                  24 3 2 -1 
                  24 2 41 -1 
                  23 41 40 -1 
                  23 24 41 -1 
                  22 40 39 -1 
                  22 23 40 -1 
                  21 39 38 -1 
                  21 22 39 -1 
                  20 38 37 -1 
                  20 21 38 -1 
                  36 20 37 -1 
                  19 20 36 -1 
                  18 36 35 -1 
                  18 19 36 -1 
                  17 35 34 -1 
                  17 18 35 -1 
                  16 34 33 -1 
                  16 17 34 -1 
                  15 33 32 -1 
                  15 16 33 -1 
                  14 32 31 -1 
                  14 15 32 -1 
                  13 31 30 -1 
                  13 14 31 -1 
                  12 30 29 -1 
                  12 13 30 -1 
                  11 29 28 -1 
                  11 12 29 -1 
                  10 28 27 -1 
                  10 11 28 -1 
                  9 10 27 -1 
                  9 27 26 -1 
                  8 9 26 -1 
                  8 26 25 -1 
                  4 8 25 -1 
                  4 25 5 -1 
                  7 4 5 -1 
                  7 5 6 -1 
                  75 7 6 -1 
                  58 7 75 -1 
                  57 75 74 -1 
                  57 58 75 -1 
                  56 74 73 -1 
                  56 57 74 -1 
                  55 73 72 -1 
                  55 56 73 -1 
                  54 72 71 -1 
                  54 55 72 -1 
                  70 54 71 -1 
                  53 54 70 -1 
                  52 70 69 -1 
                  52 53 70 -1 
                  51 69 68 -1 
                  51 52 69 -1 
                  50 68 67 -1 
                  50 51 68 -1 
                  49 67 66 -1 
                  49 50 67 -1 
                  48 66 65 -1 
                  48 49 66 -1 
                  47 65 64 -1 
                  47 48 65 -1 
                  46 64 63 -1 
                  46 47 64 -1 
                  45 63 62 -1 
                  45 46 63 -1 
                  44 62 61 -1 
                  44 45 62 -1 
                  43 44 61 -1 
                  43 61 60 -1 
                  42 43 60 -1 
                  42 60 59 -1 
                  0 42 59 -1 
                  0 59 1 -1 
                  76 3 4 -1 
                  76 7 0 -1 
                  13 12 11 -1 
                  10 13 11 -1 
                  14 13 10 -1 
                  15 14 10 -1 
                  4 9 8 -1 
                  4 10 9 -1 
                  17 16 15 -1 
                  17 15 10 -1 
                  21 20 19 -1 
                  22 18 17 -1 
                  22 19 18 -1 
                  22 10 4 -1 
                  22 17 10 -1 
                  22 21 19 -1 
                  3 23 22 -1 
                  3 24 23 -1 
                  3 22 4 -1 
                  57 7 58 -1 
                  56 7 57 -1 
                  53 55 54 -1 
                  53 56 55 -1 
                  52 56 53 -1 
                  51 56 52 -1 
                  0 7 56 -1 
                  49 51 50 -1 
                  43 42 0 -1 
                  44 0 56 -1 
                  44 43 0 -1 
                  44 49 48 -1 
                  44 56 51 -1 
                  44 51 49 -1 
                  47 44 48 -1 
                  45 44 47 -1 
                  46 45 47 -1 
                  76 0 3 -1 
                  76 4 7 -1 
                  77 5 2 -1 
                  77 1 6 -1 
                  30 28 29 -1 
                  27 28 30 -1 
                  31 27 30 -1 
                  32 27 31 -1 
                  5 25 26 -1 
                  5 26 27 -1 
                  34 32 33 -1 
                  34 27 32 -1 
                  38 36 37 -1 
                  39 34 35 -1 
                  39 35 36 -1 
                  39 5 27 -1 
                  39 27 34 -1 
                  39 36 38 -1 
                  2 39 40 -1 
                  2 40 41 -1 
                  2 5 39 -1 
                  74 75 6 -1 
                  73 74 6 -1 
                  70 71 72 -1 
                  70 72 73 -1 
                  69 70 73 -1 
                  68 69 73 -1 
                  1 73 6 -1 
                  66 67 68 -1 
                  60 1 59 -1 
                  61 73 1 -1 
                  61 1 60 -1 
                  61 65 66 -1 
                  61 68 73 -1 
                  61 66 68 -1 
                  64 65 61 -1 
                  62 64 61 -1 
                  63 64 62 -1 
                  77 2 1 -1 
                  77 6 5 -1 
                ]
                normalIndex [
                  3 0 1 -1 
                  3 1 2 -1 
                  22 5 23 -1 
                  22 23 41 -1 
                  21 41 40 -1 
                  21 22 41 -1 
                  20 40 39 -1 
                  20 21 40 -1 
                  19 39 38 -1 
                  19 20 39 -1 
                  18 38 37 -1 
                  18 19 38 -1 
                  36 18 37 -1 
                  17 18 36 -1 
                  16 36 35 -1 
                  16 17 36 -1 
                  15 35 34 -1 
                  15 16 35 -1 
                  14 34 33 -1 
                  14 15 34 -1 
                  13 33 32 -1 
                  13 14 33 -1 
                  12 32 31 -1 
                  12 13 32 -1 
                  11 31 30 -1 
                  11 12 31 -1 
                  10 30 29 -1 
                  10 11 30 -1 
                  9 29 28 -1 
                  9 10 29 -1 
                  8 28 27 -1 
                  8 9 28 -1 
                  7 8 27 -1 
                  7 27 26 -1 
                  6 7 26 -1 
                  6 26 25 -1 
                  4 6 25 -1 
                  4 25 24 -1 
                  45 42 43 -1 
                  45 43 44 -1 
                  83 47 65 -1 
                  64 47 83 -1 
                  63 83 82 -1 
                  63 64 83 -1 
                  62 82 81 -1 
                  62 63 82 -1 
                  61 81 80 -1 
                  61 62 81 -1 
                  60 80 79 -1 
                  60 61 80 -1 
                  78 60 79 -1 
                  59 60 78 -1 
                  58 78 77 -1 
                  58 59 78 -1 
                  57 77 76 -1 
                  57 58 77 -1 
                  56 76 75 -1 
                  56 57 76 -1 
                  55 75 74 -1 
                  55 56 75 -1 
                  54 74 73 -1 
                  54 55 74 -1 
                  53 73 72 -1 
                  53 54 73 -1 
                  52 72 71 -1 
                  52 53 72 -1 
                  51 71 70 -1 
                  51 52 71 -1 
                  50 70 69 -1 
                  50 51 70 -1 
                  49 50 69 -1 
                  49 69 68 -1 
                  48 49 68 -1 
                  48 68 67 -1 
                  46 48 67 -1 
                  46 67 66 -1 
                  122 85 86 -1 
                  122 104 84 -1 
                  92 91 90 -1 
                  89 92 90 -1 
                  93 92 89 -1 
                  94 93 89 -1 
                  86 88 87 -1 
                  86 89 88 -1 
                  96 95 94 -1 
                  96 94 89 -1 
                  100 99 98 -1 
                  101 97 96 -1 
                  101 98 97 -1 
                  101 89 86 -1 
                  101 96 89 -1 
                  101 100 98 -1 
                  85 102 101 -1 
                  85 103 102 -1 
                  85 101 86 -1 
                  120 104 121 -1 
                  119 104 120 -1 
                  116 118 117 -1 
                  116 119 118 -1 
                  115 119 116 -1 
                  114 119 115 -1 
                  84 104 119 -1 
                  112 114 113 -1 
                  106 105 84 -1 
                  107 84 119 -1 
                  107 106 84 -1 
                  107 112 111 -1 
                  107 119 114 -1 
                  107 114 112 -1 
                  110 107 111 -1 
                  108 107 110 -1 
                  109 108 110 -1 
                  122 84 85 -1 
                  122 86 104 -1 
                  161 125 124 -1 
                  161 123 143 -1 
                  131 129 130 -1 
                  128 129 131 -1 
                  132 128 131 -1 
                  133 128 132 -1 
                  125 126 127 -1 
                  125 127 128 -1 
                  135 133 134 -1 
                  135 128 133 -1 
                  139 137 138 -1 
                  140 135 136 -1 
                  140 136 137 -1 
                  140 125 128 -1 
                  140 128 135 -1 
                  140 137 139 -1 
                  124 140 141 -1 
                  124 141 142 -1 
                  124 125 140 -1 
                  159 160 143 -1 
                  158 159 143 -1 
                  155 156 157 -1 
                  155 157 158 -1 
                  154 155 158 -1 
                  153 154 158 -1 
                  123 158 143 -1 
                  151 152 153 -1 
                  145 123 144 -1 
                  146 158 123 -1 
                  146 123 145 -1 
                  146 150 151 -1 
                  146 153 158 -1 
                  146 151 153 -1 
                  149 150 146 -1 
                  147 149 146 -1 
                  148 149 147 -1 
                  161 124 123 -1 
                  161 143 125 -1 
                ]
              }
            }
          ]
        }
        DEF Leads Group {
          children [
            DEF __9 Shape {
              appearance DEF __10 Appearance {
                material DEF __11 Material {
                  ambientIntensity 0.260947436094
                  diffuseColor 0.73400002718 0.773000001907 0.79699999094
                  shininess 0
                }
              }
              geometry DEF __12 IndexedFaceSet {
                solid FALSE
                coord Coordinate {
                  point [
                    0.0002285 -5.5966358721e-20 0,
                    0.0002285 -5.5966358721e-20 -0.005,
                    0.000225028571563 3.96786085969e-05 0,
                    0.00021471976385 7.81516027499e-05 0,
                    0.000197886804765 0.00011425 0,
                    0.000175041155253 0.000146876968813 0,
                    0.000146876968813 0.000175041155253 0,
                    0.00011425 0.000197886804765 0,
                    7.81516027499e-05 0.00021471976385 0,
                    3.96786085969e-05 0.000225028571563 0,
                    1.39915896803e-20 0.0002285 0,
                    -3.96786085969e-05 0.000225028571563 0,
                    -7.81516027499e-05 0.00021471976385 0,
                    -0.00011425 0.000197886804765 0,
                    -0.000146876968813 0.000175041155253 0,
                    -0.000175041155253 0.000146876968813 0,
                    -0.000197886804765 0.00011425 0,
                    -0.00021471976385 7.81516027499e-05 0,
                    -0.000225028571563 3.96786085969e-05 0,
                    -0.0002285 3.32406332713e-19 0,
                    -0.000225028571563 -3.96786085969e-05 0,
                    -0.00021471976385 -7.81516027499e-05 0,
                    -0.000197886804765 -0.00011425 0,
                    -0.000175041155253 -0.000146876968813 0,
                    -0.000146876968813 -0.000175041155253 0,
                    -0.00011425 -0.000197886804765 0,
                    -7.81516027499e-05 -0.00021471976385 0,
                    -3.96786085969e-05 -0.000225028571563 0,
                    -6.50821075745e-19 -0.0002285 0,
                    3.96786085969e-05 -0.000225028571563 0,
                    7.81516027499e-05 -0.00021471976385 0,
                    0.00011425 -0.000197886804765 0,
                    0.000146876968813 -0.000175041155253 0,
                    0.000175041155253 -0.000146876968813 0,
                    0.000197886804765 -0.00011425 0,
                    0.00021471976385 -7.81516027499e-05 0,
                    0.000225028571563 -3.96786085969e-05 0,
                    0.000225028571563 3.96786085969e-05 -0.005,
                    0.00021471976385 7.81516027499e-05 -0.005,
                    0.000197886804765 0.00011425 -0.005,
                    0.000175041155253 0.000146876968813 -0.005,
                    0.000146876968813 0.000175041155253 -0.005,
                    0.00011425 0.000197886804765 -0.005,
                    7.81516027499e-05 0.00021471976385 -0.005,
                    3.96786085969e-05 0.000225028571563 -0.005,
                    1.39915896803e-20 0.0002285 -0.005,
                    -3.96786085969e-05 0.000225028571563 -0.005,
                    -7.81516027499e-05 0.00021471976385 -0.005,
                    -0.00011425 0.000197886804765 -0.005,
                    -0.000146876968813 0.000175041155253 -0.005,
                    -0.000175041155253 0.000146876968813 -0.005,
                    -0.000197886804765 0.00011425 -0.005,
                    -0.00021471976385 7.81516027499e-05 -0.005,
                    -0.000225028571563 3.96786085969e-05 -0.005,
                    -0.0002285 3.32406332713e-19 -0.005,
                    -0.000225028571563 -3.96786085969e-05 -0.005,
                    -0.00021471976385 -7.81516027499e-05 -0.005,
                    -0.000197886804765 -0.00011425 -0.005,
                    -0.000175041155253 -0.000146876968813 -0.005,
                    -0.000146876968813 -0.000175041155253 -0.005,
                    -0.00011425 -0.000197886804765 -0.005,
                    -7.81516027499e-05 -0.00021471976385 -0.005,
                    -3.96786085969e-05 -0.000225028571563 -0.005,
                    -6.50821075745e-19 -0.0002285 -0.005,
                    3.96786085969e-05 -0.000225028571563 -0.005,
                    7.81516027499e-05 -0.00021471976385 -0.005,
                    0.00011425 -0.000197886804765 -0.005,
                    0.000146876968813 -0.000175041155253 -0.005,
                    0.000175041155253 -0.000146876968813 -0.005,
                    0.000197886804765 -0.00011425 -0.005,
                    0.00021471976385 -7.81516027499e-05 -0.005,
                    0.000225028571563 -3.96786085969e-05 -0.005,
                    0 0 0,
                    0 0 -0.005

                  ]
                }
                normal Normal {
                  vector [
                    1 0 -0,
                    1 -2.4492937e-16 0,
                    0.98480773 0.17364818 -0,
                    0.93969262 0.34202015 -0,
                    0.86602539 0.5 -0,
                    0.76604444 0.64278764 -0,
                    0.64278764 0.76604444 -0,
                    0.5 0.86602539 -0,
                    0.34202015 0.93969262 -0,
                    0.17364818 0.98480773 -0,
                    6.1232343e-17 1 -0,
                    -0.17364818 0.98480773 0,
                    -0.34202015 0.93969262 0,
                    -0.5 0.86602539 0,
                    -0.64278764 0.76604444 0,
                    -0.76604444 0.64278764 0,
                    -0.86602539 0.5 0,
                    -0.93969262 0.34202015 0,
                    -0.98480773 0.17364818 0,
                    -1 1.4547323e-15 0,
                    -0.98480773 -0.17364818 0,
                    -0.93969262 -0.34202015 0,
                    -0.86602539 -0.5 0,
                    -0.76604444 -0.64278764 0,
                    -0.64278764 -0.76604444 0,
                    -0.5 -0.86602539 0,
                    -0.34202015 -0.93969262 0,
                    -0.17364818 -0.98480773 0,
                    -2.8482324e-15 -1 0,
                    0.17364818 -0.98480773 0,
                    0.34202015 -0.93969262 0,
                    0.5 -0.86602539 0,
                    0.64278764 -0.76604444 0,
                    0.76604444 -0.64278764 0,
                    0.86602539 -0.5 0,
                    0.93969262 -0.34202015 0,
                    0.98480773 -0.17364818 0,
                    1 0 -0,
                    1 -2.4492937e-16 0,
                    0.98480773 0.17364818 -0,
                    0.93969262 0.34202015 -0,
                    0.86602539 0.5 -0,
                    0.76604444 0.64278764 -0,
                    0.64278764 0.76604444 -0,
                    0.5 0.86602539 -0,
                    0.34202015 0.93969262 -0,
                    0.17364818 0.98480773 -0,
                    6.1232343e-17 1 -0,
                    -0.17364818 0.98480773 0,
                    -0.34202015 0.93969262 0,
                    -0.5 0.86602539 0,
                    -0.64278764 0.76604444 0,
                    -0.76604444 0.64278764 0,
                    -0.86602539 0.5 0,
                    -0.93969262 0.34202015 0,
                    -0.98480773 0.17364818 0,
                    -1 1.4547323e-15 0,
                    -0.98480773 -0.17364818 0,
                    -0.93969262 -0.34202015 0,
                    -0.86602539 -0.5 0,
                    -0.76604444 -0.64278764 0,
                    -0.64278764 -0.76604444 0,
                    -0.5 -0.86602539 0,
                    -0.34202015 -0.93969262 0,
                    -0.17364818 -0.98480773 0,
                    -2.8482324e-15 -1 0,
                    0.17364818 -0.98480773 0,
                    0.34202015 -0.93969262 0,
                    0.5 -0.86602539 0,
                    0.64278764 -0.76604444 0,
                    0.76604444 -0.64278764 0,
                    0.86602539 -0.5 0,
                    0.93969262 -0.34202015 0,
                    0.98480773 -0.17364818 0,
                    0 0 1,
                    0 0 1,
                    0 0 1,
                    0 0 1,
                    0 0 1,
                    0 0 1,
                    0 0 1,
                    0 0 1,
                    0 0 1,
                    0 0 1,
                    0 0 1,
                    0 0 1,
                    0 0 1,
                    0 0 1,
                    0 0 1,
                    0 0 1,
                    0 0 1,
                    0 0 1,
                    0 0 1,
                    0 0 1,
                    0 0 1,
                    0 0 1,
                    0 0 1,
                    0 0 1,
                    0 0 1,
                    0 0 1,
                    0 0 1,
                    0 0 1,
                    0 0 1,
                    0 0 1,
                    0 0 1,
                    0 0 1,
                    0 0 1,
                    0 0 1,
                    0 0 1,
                    0 0 1,
                    0 0 1,
                    -0 -0 -1,
                    -0 -0 -1,
                    -0 -0 -1,
                    -0 -0 -1,
                    -0 -0 -1,
                    -0 -0 -1,
                    -0 -0 -1,
                    -0 -0 -1,
                    -0 -0 -1,
                    -0 -0 -1,
                    -0 -0 -1,
                    -0 -0 -1,
                    -0 -0 -1,
                    -0 -0 -1,
                    -0 -0 -1,
                    -0 -0 -1,
                    -0 -0 -1,
                    -0 -0 -1,
                    -0 -0 -1,
                    -0 -0 -1,
                    -0 -0 -1,
                    -0 -0 -1,
                    -0 -0 -1,
                    -0 -0 -1,
                    -0 -0 -1,
                    -0 -0 -1,
                    -0 -0 -1,
                    -0 -0 -1,
                    -0 -0 -1,
                    -0 -0 -1,
                    -0 -0 -1,
                    -0 -0 -1,
                    -0 -0 -1,
                    -0 -0 -1,
                    -0 -0 -1,
                    -0 -0 -1,
                    -0 -0 -1

                  ]
                }
                coordIndex [
                  58 22 57 -1 
                  23 22 58 -1 
                  37 0 1 -1 
                  59 23 58 -1 
                  24 23 59 -1 
                  2 0 37 -1 
                  25 59 60 -1 
                  38 2 37 -1 
                  25 24 59 -1 
                  61 25 60 -1 
                  3 2 38 -1 
                  26 25 61 -1 
                  39 3 38 -1 
                  4 3 39 -1 
                  62 26 61 -1 
                  40 4 39 -1 
                  27 26 62 -1 
                  5 4 40 -1 
                  63 27 62 -1 
                  28 27 63 -1 
                  6 40 41 -1 
                  64 28 63 -1 
                  6 5 40 -1 
                  29 28 64 -1 
                  42 6 41 -1 
                  65 29 64 -1 
                  7 6 42 -1 
                  30 29 65 -1 
                  43 7 42 -1 
                  66 30 65 -1 
                  8 7 43 -1 
                  31 30 66 -1 
                  67 31 66 -1 
                  9 8 43 -1 
                  32 31 67 -1 
                  9 43 44 -1 
                  68 32 67 -1 
                  33 32 68 -1 
                  10 9 44 -1 
                  69 33 68 -1 
                  10 44 45 -1 
                  46 10 45 -1 
                  34 33 69 -1 
                  70 34 69 -1 
                  11 10 46 -1 
                  35 34 70 -1 
                  12 11 46 -1 
                  36 35 70 -1 
                  12 46 47 -1 
                  36 70 71 -1 
                  48 12 47 -1 
                  1 36 71 -1 
                  13 12 48 -1 
                  0 36 1 -1 
                  49 13 48 -1 
                  14 13 49 -1 
                  15 14 49 -1 
                  15 49 50 -1 
                  51 15 50 -1 
                  16 15 51 -1 
                  52 16 51 -1 
                  17 16 52 -1 
                  53 17 52 -1 
                  18 17 53 -1 
                  54 18 53 -1 
                  19 18 54 -1 
                  20 19 54 -1 
                  20 54 55 -1 
                  56 20 55 -1 
                  21 20 56 -1 
                  57 21 56 -1 
                  22 21 57 -1 
                  72 18 19 -1 
                  72 19 20 -1 
                  72 20 21 -1 
                  72 21 22 -1 
                  72 22 23 -1 
                  72 23 24 -1 
                  72 24 25 -1 
                  72 25 26 -1 
                  72 26 27 -1 
                  72 27 28 -1 
                  72 28 29 -1 
                  72 29 30 -1 
                  72 30 31 -1 
                  72 31 32 -1 
                  72 32 33 -1 
                  72 33 34 -1 
                  72 34 35 -1 
                  72 35 36 -1 
                  72 36 0 -1 
                  72 0 2 -1 
                  72 2 3 -1 
                  72 3 4 -1 
                  72 4 5 -1 
                  72 5 6 -1 
                  72 6 7 -1 
                  72 7 8 -1 
                  72 8 9 -1 
                  72 9 10 -1 
                  72 10 11 -1 
                  72 11 12 -1 
                  72 12 13 -1 
                  72 13 14 -1 
                  72 14 15 -1 
                  72 15 16 -1 
                  72 16 17 -1 
                  72 17 18 -1 
                  73 57 56 -1 
                  73 58 57 -1 
                  73 59 58 -1 
                  73 60 59 -1 
                  73 61 60 -1 
                  73 62 61 -1 
                  73 63 62 -1 
                  73 64 63 -1 
                  73 65 64 -1 
                  73 66 65 -1 
                  73 67 66 -1 
                  73 68 67 -1 
                  73 69 68 -1 
                  73 70 69 -1 
                  73 71 70 -1 
                  73 1 71 -1 
                  73 37 1 -1 
                  73 38 37 -1 
                  73 39 38 -1 
                  73 40 39 -1 
                  73 41 40 -1 
                  73 42 41 -1 
                  73 43 42 -1 
                  73 44 43 -1 
                  73 45 44 -1 
                  73 46 45 -1 
                  73 47 46 -1 
                  73 48 47 -1 
                  73 49 48 -1 
                  73 50 49 -1 
                  73 51 50 -1 
                  73 52 51 -1 
                  73 53 52 -1 
                  73 54 53 -1 
                  73 55 54 -1 
                  73 56 55 -1 
                ]
                normalIndex [
                  60 22 59 -1 
                  23 22 60 -1 
                  39 0 37 -1 
                  61 23 60 -1 
                  24 23 61 -1 
                  2 0 39 -1 
                  25 61 62 -1 
                  40 2 39 -1 
                  25 24 61 -1 
                  63 25 62 -1 
                  3 2 40 -1 
                  26 25 63 -1 
                  41 3 40 -1 
                  4 3 41 -1 
                  64 26 63 -1 
                  42 4 41 -1 
                  27 26 64 -1 
                  5 4 42 -1 
                  65 27 64 -1 
                  28 27 65 -1 
                  6 42 43 -1 
                  66 28 65 -1 
                  6 5 42 -1 
                  29 28 66 -1 
                  44 6 43 -1 
                  67 29 66 -1 
                  7 6 44 -1 
                  30 29 67 -1 
                  45 7 44 -1 
                  68 30 67 -1 
                  8 7 45 -1 
                  31 30 68 -1 
                  69 31 68 -1 
                  9 8 45 -1 
                  32 31 69 -1 
                  9 45 46 -1 
                  70 32 69 -1 
                  33 32 70 -1 
                  10 9 46 -1 
                  71 33 70 -1 
                  10 46 47 -1 
                  48 10 47 -1 
                  34 33 71 -1 
                  72 34 71 -1 
                  11 10 48 -1 
                  35 34 72 -1 
                  12 11 48 -1 
                  36 35 72 -1 
                  12 48 49 -1 
                  36 72 73 -1 
                  50 12 49 -1 
                  38 36 73 -1 
                  13 12 50 -1 
                  1 36 38 -1 
                  51 13 50 -1 
                  14 13 51 -1 
                  15 14 51 -1 
                  15 51 52 -1 
                  53 15 52 -1 
                  16 15 53 -1 
                  54 16 53 -1 
                  17 16 54 -1 
                  55 17 54 -1 
                  18 17 55 -1 
                  56 18 55 -1 
                  19 18 56 -1 
                  20 19 56 -1 
                  20 56 57 -1 
                  58 20 57 -1 
                  21 20 58 -1 
                  59 21 58 -1 
                  22 21 59 -1 
                  110 91 92 -1 
                  110 92 93 -1 
                  110 93 94 -1 
                  110 94 95 -1 
                  110 95 96 -1 
                  110 96 97 -1 
                  110 97 98 -1 
                  110 98 99 -1 
                  110 99 100 -1 
                  110 100 101 -1 
                  110 101 102 -1 
                  110 102 103 -1 
                  110 103 104 -1 
                  110 104 105 -1 
                  110 105 106 -1 
                  110 106 107 -1 
                  110 107 108 -1 
                  110 108 109 -1 
                  110 109 74 -1 
                  110 74 75 -1 
                  110 75 76 -1 
                  110 76 77 -1 
                  110 77 78 -1 
                  110 78 79 -1 
                  110 79 80 -1 
                  110 80 81 -1 
                  110 81 82 -1 
                  110 82 83 -1 
                  110 83 84 -1 
                  110 84 85 -1 
                  110 85 86 -1 
                  110 86 87 -1 
                  110 87 88 -1 
                  110 88 89 -1 
                  110 89 90 -1 
                  110 90 91 -1 
                  147 132 131 -1 
                  147 133 132 -1 
                  147 134 133 -1 
                  147 135 134 -1 
                  147 136 135 -1 
                  147 137 136 -1 
                  147 138 137 -1 
                  147 139 138 -1 
                  147 140 139 -1 
                  147 141 140 -1 
                  147 142 141 -1 
                  147 143 142 -1 
                  147 144 143 -1 
                  147 145 144 -1 
                  147 146 145 -1 
                  147 111 146 -1 
                  147 112 111 -1 
                  147 113 112 -1 
                  147 114 113 -1 
                  147 115 114 -1 
                  147 116 115 -1 
                  147 117 116 -1 
                  147 118 117 -1 
                  147 119 118 -1 
                  147 120 119 -1 
                  147 121 120 -1 
                  147 122 121 -1 
                  147 123 122 -1 
                  147 124 123 -1 
                  147 125 124 -1 
                  147 126 125 -1 
                  147 127 126 -1 
                  147 128 127 -1 
                  147 129 128 -1 
                  147 130 129 -1 
                  147 131 130 -1 
                ]
              }
            }
            DEF __13 Shape {
              appearance DEF __14 Appearance {
                material DEF __15 Material {
                  ambientIntensity 0.260947436094
                  diffuseColor 0.73400002718 0.773000001907 0.79699999094
                  shininess 0
                }
              }
              geometry DEF __16 IndexedFaceSet {
                solid FALSE
                coord Coordinate {
                  point [
                    0.0051085 -5.5966358721e-20 0,
                    0.0051085 -5.5966358721e-20 -0.005,
                    0.00510502857156 3.96786085969e-05 0,
                    0.00509471976385 7.81516027499e-05 0,
                    0.00507788680476 0.00011425 0,
                    0.00505504115525 0.000146876968813 0,
                    0.00502687696881 0.000175041155253 0,
                    0.00499425 0.000197886804765 0,
                    0.00495815160275 0.00021471976385 0,
                    0.0049196786086 0.000225028571563 0,
                    0.00488 0.0002285 0,
                    0.0048403213914 0.000225028571563 0,
                    0.00480184839725 0.00021471976385 0,
                    0.00476575 0.000197886804765 0,
                    0.00473312303119 0.000175041155253 0,
                    0.00470495884475 0.000146876968813 0,
                    0.00468211319524 0.00011425 0,
                    0.00466528023615 7.81516027499e-05 0,
                    0.00465497142844 3.96786085969e-05 0,
                    0.0046515 3.32406332713e-19 0,
                    0.00465497142844 -3.96786085969e-05 0,
                    0.00466528023615 -7.81516027499e-05 0,
                    0.00468211319524 -0.00011425 0,
                    0.00470495884475 -0.000146876968813 0,
                    0.00473312303119 -0.000175041155253 0,
                    0.00476575 -0.000197886804765 0,
                    0.00480184839725 -0.00021471976385 0,
                    0.0048403213914 -0.000225028571563 0,
                    0.00488 -0.0002285 0,
                    0.0049196786086 -0.000225028571563 0,
                    0.00495815160275 -0.00021471976385 0,
                    0.00499425 -0.000197886804765 0,
                    0.00502687696881 -0.000175041155253 0,
                    0.00505504115525 -0.000146876968813 0,
                    0.00507788680476 -0.00011425 0,
                    0.00509471976385 -7.81516027499e-05 0,
                    0.00510502857156 -3.96786085969e-05 0,
                    0.00510502857156 3.96786085969e-05 -0.005,
                    0.00509471976385 7.81516027499e-05 -0.005,
                    0.00507788680476 0.00011425 -0.005,
                    0.00505504115525 0.000146876968813 -0.005,
                    0.00502687696881 0.000175041155253 -0.005,
                    0.00499425 0.000197886804765 -0.005,
                    0.00495815160275 0.00021471976385 -0.005,
                    0.0049196786086 0.000225028571563 -0.005,
                    0.00488 0.0002285 -0.005,
                    0.0048403213914 0.000225028571563 -0.005,
                    0.00480184839725 0.00021471976385 -0.005,
                    0.00476575 0.000197886804765 -0.005,
                    0.00473312303119 0.000175041155253 -0.005,
                    0.00470495884475 0.000146876968813 -0.005,
                    0.00468211319524 0.00011425 -0.005,
                    0.00466528023615 7.81516027499e-05 -0.005,
                    0.00465497142844 3.96786085969e-05 -0.005,
                    0.0046515 3.32406332713e-19 -0.005,
                    0.00465497142844 -3.96786085969e-05 -0.005,
                    0.00466528023615 -7.81516027499e-05 -0.005,
                    0.00468211319524 -0.00011425 -0.005,
                    0.00470495884475 -0.000146876968813 -0.005,
                    0.00473312303119 -0.000175041155253 -0.005,
                    0.00476575 -0.000197886804765 -0.005,
                    0.00480184839725 -0.00021471976385 -0.005,
                    0.0048403213914 -0.000225028571563 -0.005,
                    0.00488 -0.0002285 -0.005,
                    0.0049196786086 -0.000225028571563 -0.005,
                    0.00495815160275 -0.00021471976385 -0.005,
                    0.00499425 -0.000197886804765 -0.005,
                    0.00502687696881 -0.000175041155253 -0.005,
                    0.00505504115525 -0.000146876968813 -0.005,
                    0.00507788680476 -0.00011425 -0.005,
                    0.00509471976385 -7.81516027499e-05 -0.005,
                    0.00510502857156 -3.96786085969e-05 -0.005,
                    0.00488 0 0,
                    0.00488 0 -0.005

                  ]
                }
                normal Normal {
                  vector [
                    1 0 -0,
                    1 -2.4492937e-16 0,
                    0.98480773 0.17364818 -0,
                    0.93969262 0.34202015 -0,
                    0.86602539 0.5 -0,
                    0.76604444 0.64278764 -0,
                    0.64278764 0.76604444 -0,
                    0.5 0.86602539 -0,
                    0.34202015 0.93969262 -0,
                    0.17364818 0.98480773 -0,
                    6.1232343e-17 1 -0,
                    -0.17364818 0.98480773 0,
                    -0.34202015 0.93969262 0,
                    -0.5 0.86602539 0,
                    -0.64278764 0.76604444 0,
                    -0.76604444 0.64278764 0,
                    -0.86602539 0.5 0,
                    -0.93969262 0.34202015 0,
                    -0.98480773 0.17364818 0,
                    -1 1.4547323e-15 0,
                    -0.98480773 -0.17364818 0,
                    -0.93969262 -0.34202015 0,
                    -0.86602539 -0.5 0,
                    -0.76604444 -0.64278764 0,
                    -0.64278764 -0.76604444 0,
                    -0.5 -0.86602539 0,
                    -0.34202015 -0.93969262 0,
                    -0.17364818 -0.98480773 0,
                    -2.8482324e-15 -1 0,
                    0.17364818 -0.98480773 0,
                    0.34202015 -0.93969262 0,
                    0.5 -0.86602539 0,
                    0.64278764 -0.76604444 0,
                    0.76604444 -0.64278764 0,
                    0.86602539 -0.5 0,
                    0.93969262 -0.34202015 0,
                    0.98480773 -0.17364818 0,
                    1 0 -0,
                    1 -2.4492937e-16 0,
                    0.98480773 0.17364818 -0,
                    0.93969262 0.34202015 -0,
                    0.86602539 0.5 -0,
                    0.76604444 0.64278764 -0,
                    0.64278764 0.76604444 -0,
                    0.5 0.86602539 -0,
                    0.34202015 0.93969262 -0,
                    0.17364818 0.98480773 -0,
                    6.1232343e-17 1 -0,
                    -0.17364818 0.98480773 0,
                    -0.34202015 0.93969262 0,
                    -0.5 0.86602539 0,
                    -0.64278764 0.76604444 0,
                    -0.76604444 0.64278764 0,
                    -0.86602539 0.5 0,
                    -0.93969262 0.34202015 0,
                    -0.98480773 0.17364818 0,
                    -1 1.4547323e-15 0,
                    -0.98480773 -0.17364818 0,
                    -0.93969262 -0.34202015 0,
                    -0.86602539 -0.5 0,
                    -0.76604444 -0.64278764 0,
                    -0.64278764 -0.76604444 0,
                    -0.5 -0.86602539 0,
                    -0.34202015 -0.93969262 0,
                    -0.17364818 -0.98480773 0,
                    -2.8482324e-15 -1 0,
                    0.17364818 -0.98480773 0,
                    0.34202015 -0.93969262 0,
                    0.5 -0.86602539 0,
                    0.64278764 -0.76604444 0,
                    0.76604444 -0.64278764 0,
                    0.86602539 -0.5 0,
                    0.93969262 -0.34202015 0,
                    0.98480773 -0.17364818 0,
                    0 0 1,
                    0 0 1,
                    0 0 1,
                    0 0 1,
                    0 0 1,
                    0 0 1,
                    0 0 1,
                    0 0 1,
                    0 0 1,
                    0 0 1,
                    0 0 1,
                    0 0 1,
                    0 0 1,
                    0 0 1,
                    0 0 1,
                    0 0 1,
                    0 0 1,
                    0 0 1,
                    0 0 1,
                    0 0 1,
                    0 0 1,
                    0 0 1,
                    0 0 1,
                    0 0 1,
                    0 0 1,
                    0 0 1,
                    0 0 1,
                    0 0 1,
                    0 0 1,
                    0 0 1,
                    0 0 1,
                    0 0 1,
                    0 0 1,
                    0 0 1,
                    0 0 1,
                    0 0 1,
                    0 0 1,
                    -0 -0 -1,
                    -0 -0 -1,
                    -0 -0 -1,
                    -0 -0 -1,
                    -0 -0 -1,
                    -0 -0 -1,
                    -0 -0 -1,
                    -0 -0 -1,
                    -0 -0 -1,
                    -0 -0 -1,
                    -0 -0 -1,
                    -0 -0 -1,
                    -0 -0 -1,
                    -0 -0 -1,
                    -0 -0 -1,
                    -0 -0 -1,
                    -0 -0 -1,
                    -0 -0 -1,
                    -0 -0 -1,
                    -0 -0 -1,
                    -0 -0 -1,
                    -0 -0 -1,
                    -0 -0 -1,
                    -0 -0 -1,
                    -0 -0 -1,
                    -0 -0 -1,
                    -0 -0 -1,
                    -0 -0 -1,
                    -0 -0 -1,
                    -0 -0 -1,
                    -0 -0 -1,
                    -0 -0 -1,
                    -0 -0 -1,
                    -0 -0 -1,
                    -0 -0 -1,
                    -0 -0 -1,
                    -0 -0 -1

                  ]
                }
                coordIndex [
                  58 22 57 -1 
                  23 22 58 -1 
                  37 0 1 -1 
                  59 23 58 -1 
                  24 23 59 -1 
                  2 0 37 -1 
                  25 59 60 -1 
                  38 2 37 -1 
                  25 24 59 -1 
                  61 25 60 -1 
                  3 2 38 -1 
                  26 25 61 -1 
                  39 3 38 -1 
                  4 3 39 -1 
                  62 26 61 -1 
                  40 4 39 -1 
                  27 26 62 -1 
                  5 4 40 -1 
                  63 27 62 -1 
                  28 27 63 -1 
                  6 40 41 -1 
                  64 28 63 -1 
                  6 5 40 -1 
                  29 28 64 -1 
                  42 6 41 -1 
                  65 29 64 -1 
                  7 6 42 -1 
                  30 29 65 -1 
                  43 7 42 -1 
                  66 30 65 -1 
                  8 7 43 -1 
                  31 30 66 -1 
                  67 31 66 -1 
                  9 8 43 -1 
                  32 31 67 -1 
                  9 43 44 -1 
                  68 32 67 -1 
                  33 32 68 -1 
                  10 9 44 -1 
                  69 33 68 -1 
                  10 44 45 -1 
                  46 10 45 -1 
                  34 33 69 -1 
                  70 34 69 -1 
                  11 10 46 -1 
                  35 34 70 -1 
                  12 11 46 -1 
                  36 35 70 -1 
                  12 46 47 -1 
                  36 70 71 -1 
                  48 12 47 -1 
                  1 36 71 -1 
                  13 12 48 -1 
                  0 36 1 -1 
                  49 13 48 -1 
                  14 13 49 -1 
                  15 14 49 -1 
                  15 49 50 -1 
                  51 15 50 -1 
                  16 15 51 -1 
                  52 16 51 -1 
                  17 16 52 -1 
                  53 17 52 -1 
                  18 17 53 -1 
                  54 18 53 -1 
                  19 18 54 -1 
                  20 19 54 -1 
                  20 54 55 -1 
                  56 20 55 -1 
                  21 20 56 -1 
                  57 21 56 -1 
                  22 21 57 -1 
                  72 8 9 -1 
                  72 9 10 -1 
                  72 10 11 -1 
                  72 11 12 -1 
                  72 12 13 -1 
                  72 13 14 -1 
                  72 14 15 -1 
                  72 15 16 -1 
                  72 16 17 -1 
                  72 17 18 -1 
                  72 18 19 -1 
                  72 19 20 -1 
                  72 20 21 -1 
                  72 21 22 -1 
                  72 22 23 -1 
                  72 23 24 -1 
                  72 24 25 -1 
                  72 25 26 -1 
                  72 26 27 -1 
                  72 27 28 -1 
                  72 28 29 -1 
                  72 29 30 -1 
                  72 30 31 -1 
                  72 31 32 -1 
                  72 32 33 -1 
                  72 33 34 -1 
                  72 34 35 -1 
                  72 35 36 -1 
                  72 36 0 -1 
                  72 0 2 -1 
                  72 2 3 -1 
                  72 3 4 -1 
                  72 4 5 -1 
                  72 5 6 -1 
                  72 6 7 -1 
                  72 7 8 -1 
                  73 44 43 -1 
                  73 45 44 -1 
                  73 46 45 -1 
                  73 47 46 -1 
                  73 48 47 -1 
                  73 49 48 -1 
                  73 50 49 -1 
                  73 51 50 -1 
                  73 52 51 -1 
                  73 53 52 -1 
                  73 54 53 -1 
                  73 55 54 -1 
                  73 56 55 -1 
                  73 57 56 -1 
                  73 58 57 -1 
                  73 59 58 -1 
                  73 60 59 -1 
                  73 61 60 -1 
                  73 62 61 -1 
                  73 63 62 -1 
                  73 64 63 -1 
                  73 65 64 -1 
                  73 66 65 -1 
                  73 67 66 -1 
                  73 68 67 -1 
                  73 69 68 -1 
                  73 70 69 -1 
                  73 71 70 -1 
                  73 1 71 -1 
                  73 37 1 -1 
                  73 38 37 -1 
                  73 39 38 -1 
                  73 40 39 -1 
                  73 41 40 -1 
                  73 42 41 -1 
                  73 43 42 -1 
                ]
                normalIndex [
                  60 22 59 -1 
                  23 22 60 -1 
                  39 0 37 -1 
                  61 23 60 -1 
                  24 23 61 -1 
                  2 0 39 -1 
                  25 61 62 -1 
                  40 2 39 -1 
                  25 24 61 -1 
                  63 25 62 -1 
                  3 2 40 -1 
                  26 25 63 -1 
                  41 3 40 -1 
                  4 3 41 -1 
                  64 26 63 -1 
                  42 4 41 -1 
                  27 26 64 -1 
                  5 4 42 -1 
                  65 27 64 -1 
                  28 27 65 -1 
                  6 42 43 -1 
                  66 28 65 -1 
                  6 5 42 -1 
                  29 28 66 -1 
                  44 6 43 -1 
                  67 29 66 -1 
                  7 6 44 -1 
                  30 29 67 -1 
                  45 7 44 -1 
                  68 30 67 -1 
                  8 7 45 -1 
                  31 30 68 -1 
                  69 31 68 -1 
                  9 8 45 -1 
                  32 31 69 -1 
                  9 45 46 -1 
                  70 32 69 -1 
                  33 32 70 -1 
                  10 9 46 -1 
                  71 33 70 -1 
                  10 46 47 -1 
                  48 10 47 -1 
                  34 33 71 -1 
                  72 34 71 -1 
                  11 10 48 -1 
                  35 34 72 -1 
                  12 11 48 -1 
                  36 35 72 -1 
                  12 48 49 -1 
                  36 72 73 -1 
                  50 12 49 -1 
                  38 36 73 -1 
                  13 12 50 -1 
                  1 36 38 -1 
                  51 13 50 -1 
                  14 13 51 -1 
                  15 14 51 -1 
                  15 51 52 -1 
                  53 15 52 -1 
                  16 15 53 -1 
                  54 16 53 -1 
                  17 16 54 -1 
                  55 17 54 -1 
                  18 17 55 -1 
                  56 18 55 -1 
                  19 18 56 -1 
                  20 19 56 -1 
                  20 56 57 -1 
                  58 20 57 -1 
                  21 20 58 -1 
                  59 21 58 -1 
                  22 21 59 -1 
                  110 81 82 -1 
                  110 82 83 -1 
                  110 83 84 -1 
                  110 84 85 -1 
                  110 85 86 -1 
                  110 86 87 -1 
                  110 87 88 -1 
                  110 88 89 -1 
                  110 89 90 -1 
                  110 90 91 -1 
                  110 91 92 -1 
                  110 92 93 -1 
                  110 93 94 -1 
                  110 94 95 -1 
                  110 95 96 -1 
                  110 96 97 -1 
                  110 97 98 -1 
                  110 98 99 -1 
                  110 99 100 -1 
                  110 100 101 -1 
                  110 101 102 -1 
                  110 102 103 -1 
                  110 103 104 -1 
                  110 104 105 -1 
                  110 105 106 -1 
                  110 106 107 -1 
                  110 107 108 -1 
                  110 108 109 -1 
                  110 109 74 -1 
                  110 74 75 -1 
                  110 75 76 -1 
                  110 76 77 -1 
                  110 77 78 -1 
                  110 78 79 -1 
                  110 79 80 -1 
                  110 80 81 -1 
                  147 119 118 -1 
                  147 120 119 -1 
                  147 121 120 -1 
                  147 122 121 -1 
                  147 123 122 -1 
                  147 124 123 -1 
                  147 125 124 -1 
                  147 126 125 -1 
                  147 127 126 -1 
                  147 128 127 -1 
                  147 129 128 -1 
                  147 130 129 -1 
                  147 131 130 -1 
                  147 132 131 -1 
                  147 133 132 -1 
                  147 134 133 -1 
                  147 135 134 -1 
                  147 136 135 -1 
                  147 137 136 -1 
                  147 138 137 -1 
                  147 139 138 -1 
                  147 140 139 -1 
                  147 141 140 -1 
                  147 142 141 -1 
                  147 143 142 -1 
                  147 144 143 -1 
                  147 145 144 -1 
                  147 146 145 -1 
                  147 111 146 -1 
                  147 112 111 -1 
                  147 113 112 -1 
                  147 114 113 -1 
                  147 115 114 -1 
                  147 116 115 -1 
                  147 117 116 -1 
                  147 118 117 -1 
                ]
              }
            }
          ]
        }
        USE Leads
      ]
    }
  ]
}
